<svg id="Iconly_Bold_Heart" data-name="Iconly/Bold/Heart" xmlns="http://www.w3.org/2000/svg" width="30" height="30" viewBox="0 0 30 30">
  <g id="Heart" transform="translate(2.496 3.125)">
    <path id="Heart-2" data-name="Heart" d="M12.541,23.75h0l-.323-.2a47.7,47.7,0,0,1-7.962-6.2,16.241,16.241,0,0,1-3.764-6A9.68,9.68,0,0,1,.67,4.757,7.6,7.6,0,0,1,5.405.337,5.631,5.631,0,0,1,6.517.076h.15A7.13,7.13,0,0,1,7.717,0h.137a7.832,7.832,0,0,1,2.288.413h.074a.413.413,0,0,1,.113.074,4.219,4.219,0,0,1,.788.326l.475.211a3.284,3.284,0,0,1,.357.237c.071.052.133.1.181.126l.051.03a3.043,3.043,0,0,1,.324.206A7.78,7.78,0,0,1,17.262,0h.055a7.283,7.283,0,0,1,2.325.363,7.524,7.524,0,0,1,4.694,4.4,9.893,9.893,0,0,1,.193,6.59,15.977,15.977,0,0,1-3.761,6.012,48.251,48.251,0,0,1-7.914,6.2l-.312.187ZM18.676,3.9a1.011,1.011,0,0,0-.946.678,1.024,1.024,0,0,0,.624,1.286,2.1,2.1,0,0,1,1.338,1.963v.038a1.075,1.075,0,0,0,.237.775A1.051,1.051,0,0,0,20.641,9a1.029,1.029,0,0,0,.988-.951V7.9A4.126,4.126,0,0,0,18.992,3.95.975.975,0,0,0,18.676,3.9Z" transform="translate(0 0)" fill="#fff"/>
  </g>
</svg>
