<svg id="Iconly_Bold_Logout" data-name="Iconly/Bold/Logout" xmlns="http://www.w3.org/2000/svg" width="30" height="30" viewBox="0 0 30 30">
  <g id="Logout" transform="translate(2.5 2.5)">
    <path id="Logout-2" data-name="Logout" d="M5.646,25A5.6,5.6,0,0,1,0,19.45V5.562A5.616,5.616,0,0,1,5.66,0h6.206A5.6,5.6,0,0,1,17.5,5.55v5.988H9.87a.963.963,0,1,0,0,1.925H17.5v5.975A5.616,5.616,0,0,1,11.841,25Zm15.029-8.187a.966.966,0,0,1,0-1.362l2-1.988H17.5V11.538h5.175l-2-1.988a.966.966,0,0,1,0-1.362.955.955,0,0,1,1.362-.012l3.651,3.637a.958.958,0,0,1,.287.687.926.926,0,0,1-.287.675l-3.651,3.638a.952.952,0,0,1-1.362,0Z" fill="#fff"/>
  </g>
</svg>
