<svg id="Iconly_Bold_Chat" data-name="Iconly/Bold/Chat" xmlns="http://www.w3.org/2000/svg" width="30" height="30" viewBox="0 0 30 30">
  <g id="Chat" transform="translate(2.5 2.5)">
    <path id="Chat-2" data-name="Chat" d="M12.5,25a12.444,12.444,0,0,1-6.15-1.627,2.748,2.748,0,0,0-1.384-.53,1.517,1.517,0,0,0-.478.079l-2.526.751a.942.942,0,0,1-.283.045.775.775,0,0,1-.625-.3A.809.809,0,0,1,.937,22.7l.838-2.8a1.307,1.307,0,0,0-.088-1.126A13.208,13.208,0,0,1,0,12.519,12.7,12.7,0,0,1,3.539,3.79,12.362,12.362,0,0,1,12.525,0a12.331,12.331,0,0,1,8.9,3.743,12.572,12.572,0,0,1,2.624,3.978A12.362,12.362,0,0,1,25,12.481,12.673,12.673,0,0,1,23.918,17.7a12,12,0,0,1-2.844,3.941A12.806,12.806,0,0,1,12.5,25Zm5.738-14.07a1.6,1.6,0,1,0,1.6,1.6A1.6,1.6,0,0,0,18.237,10.929Zm-5.786,0a1.585,1.585,0,0,0-1.576,1.59,1.6,1.6,0,1,0,1.6-1.59h-.024Zm-5.738,0a1.6,1.6,0,1,0,1.6,1.6A1.6,1.6,0,0,0,6.713,10.929Z" fill="#fff"/>
  </g>
</svg>
