<svg xmlns="http://www.w3.org/2000/svg" width="22.5" height="25" viewBox="0 0 22.5 25">
  <g id="Document" transform="translate(0 0)">
    <path id="Document-2" data-name="Document" d="M16.489,25H6.012C2.191,25,0,22.795,0,18.95V6.038A6.137,6.137,0,0,1,1.581,1.589,6.079,6.079,0,0,1,6.012,0H16.489C20.309,0,22.5,2.2,22.5,6.038V18.95a6.114,6.114,0,0,1-1.558,4.478A6.024,6.024,0,0,1,16.489,25ZM6.248,17.17a.975.975,0,0,0-.836.468.983.983,0,0,0,.816,1.507.875.875,0,0,0,.122-.008h9.8a.988.988,0,0,0,0-1.962H6.35A1,1,0,0,0,6.248,17.17Zm.1-5.7a.975.975,0,0,0,0,1.951h9.8a.975.975,0,0,0,0-1.951Zm0-5.661v.012h0a.974.974,0,0,0,0,1.948h3.737a.981.981,0,0,0,0-1.962Z" fill="#fff"/>
  </g>
</svg>
