<svg id="Iconly_Bold_Notification" data-name="Iconly/Bold/Notification" xmlns="http://www.w3.org/2000/svg" width="30" height="30" viewBox="0 0 30 30">
  <g id="Notification" transform="translate(4.375 2.5)">
    <path id="Notification-2" data-name="Notification" d="M9.979,24.958a4.524,4.524,0,0,1-2.142-.916,1.939,1.939,0,0,1-.87-1.466c0-.63.577-.918,1.111-1.042a32.443,32.443,0,0,1,5.058,0c.534.124,1.111.412,1.111,1.042a1.942,1.942,0,0,1-.868,1.467,4.544,4.544,0,0,1-2.141.915A4.994,4.994,0,0,1,10.6,25,4.584,4.584,0,0,1,9.979,24.958ZM4.7,19.684A5.669,5.669,0,0,1,1.08,17.918,4.518,4.518,0,0,1,0,14.945a4.21,4.21,0,0,1,.914-2.888A4.746,4.746,0,0,0,2.242,8.495V7.963a7.031,7.031,0,0,1,1.6-4.823A8.841,8.841,0,0,1,10.569,0h.112a8.8,8.8,0,0,1,6.833,3.281,6.932,6.932,0,0,1,1.494,4.682v.532a4.861,4.861,0,0,0,1.328,3.562,4.2,4.2,0,0,1,.913,2.888,4.517,4.517,0,0,1-1.079,2.973,5.674,5.674,0,0,1-3.625,1.766c-1.964.167-3.93.308-5.921.308A52.111,52.111,0,0,1,4.7,19.684Z" fill="#fff"/>
  </g>
</svg>
