<svg xmlns="http://www.w3.org/2000/svg" width="50" height="34.114" viewBox="0 0 50 34.114">
  <g id="express-delivery_1_" data-name="express-delivery (1)" transform="translate(0 -81.335)">
    <path id="Path_1749" data-name="Path 1749" d="M343.776,171.34v9.886a1.465,1.465,0,0,1-1.465,1.465H327.076a1.465,1.465,0,0,1-1.465-1.461l-.041-18.57a1.465,1.465,0,0,1,1.465-1.465h6.874a1.463,1.463,0,0,1,1.053.446l8.4,8.681a1.464,1.464,0,0,1,.412,1.019Z" transform="translate(-293.776 -72.061)" fill="#f3edea"/>
    <path id="Path_1750" data-name="Path 1750" d="M325.766,265.089l.022,9.889a1.465,1.465,0,0,0,1.465,1.461h15.235a1.465,1.465,0,0,0,1.465-1.465v-9.885Z" transform="translate(-293.953 -165.809)" fill="#8095ff"/>
    <path id="Path_1751" data-name="Path 1751" d="M343.776,171.34a1.464,1.464,0,0,0-.412-1.019l-8.4-8.681a1.463,1.463,0,0,0-1.053-.446h-6.874a1.465,1.465,0,0,0-1.465,1.465l.019,8.681h18.187Z" transform="translate(-293.776 -72.061)" fill="#ced6ff"/>
    <path id="Path_1752" data-name="Path 1752" d="M76.425,82.8v27.83h-.391l-27.21.285a1.467,1.467,0,0,1-1.465-1.465V82.8a1.465,1.465,0,0,1,1.465-1.465H74.961A1.465,1.465,0,0,1,76.425,82.8Z" transform="translate(-42.735 0)" fill="#516eff"/>
    <path id="Path_1753" data-name="Path 1753" d="M97.726,318.865a6.05,6.05,0,1,1,0-12.1h0a6.05,6.05,0,1,1,0,12.1Z" transform="translate(-82.723 -203.415)" fill="#ced6ff"/>
    <path id="Path_1754" data-name="Path 1754" d="M124.8,336.765a3.12,3.12,0,1,0,2.206.914A3.124,3.124,0,0,0,124.8,336.765Z" transform="translate(-109.794 -230.486)" fill="#f3edea"/>
    <path id="Path_1755" data-name="Path 1755" d="M359.454,318.865a6.05,6.05,0,1,1,0-12.1h0a6.05,6.05,0,0,1,0,12.1Z" transform="translate(-318.892 -203.415)" fill="#ced6ff"/>
    <path id="Path_1756" data-name="Path 1756" d="M386.525,336.765a3.12,3.12,0,1,0,2.206.914A3.124,3.124,0,0,0,386.525,336.765Z" transform="translate(-345.963 -230.486)" fill="#e3dcda"/>
    <path id="Path_1757" data-name="Path 1757" d="M35.207,143.875H22.47a1.465,1.465,0,0,1,0-2.93H35.207a1.465,1.465,0,0,1,0,2.93Z" transform="translate(-18.954 -53.789)" fill="#ced6ff"/>
    <path id="Path_1758" data-name="Path 1758" d="M15.179,203.889H1.465a1.465,1.465,0,0,1,0-2.93H15.179a1.465,1.465,0,0,1,0,2.93Z" transform="translate(0 -107.942)" fill="#8095ff"/>
  </g>
</svg>
