<svg id="Iconly_Bold_Location" data-name="Iconly/Bold/Location" xmlns="http://www.w3.org/2000/svg" width="30" height="30" viewBox="0 0 30 30">
  <g id="Location" transform="translate(4.375 2.5)">
    <path id="Location-2" data-name="Location" d="M10.631,25a1.7,1.7,0,0,1-.917-.309,26.891,26.891,0,0,1-6.925-6.426A12.981,12.981,0,0,1,0,10.4,10.21,10.21,0,0,1,3.129,3.042,10.663,10.663,0,0,1,10.617,0,10.529,10.529,0,0,1,21.25,10.4a12.987,12.987,0,0,1-2.788,7.867,27.4,27.4,0,0,1-6.927,6.426A1.649,1.649,0,0,1,10.631,25ZM10.617,7.221a3.5,3.5,0,0,0-3.5,3.5,3.39,3.39,0,0,0,1.027,2.443,3.529,3.529,0,0,0,5.988-2.443,3.53,3.53,0,0,0-3.516-3.5Z" fill="#fff"/>
  </g>
</svg>
