<svg id="next" xmlns="http://www.w3.org/2000/svg" width="27.839" height="22.269" viewBox="0 0 27.839 22.269">
  <g id="Group_25" data-name="Group 25" transform="translate(0 0)">
    <g id="Group_24" data-name="Group 24" transform="translate(0 0)">
      <path id="Path_1384" data-name="Path 1384" d="M225.088,56.525l7.424-7.424a3.711,3.711,0,1,1,5.248,5.248l-4.8,4.8,4.8,4.8a3.711,3.711,0,1,1-5.248,5.249l-7.424-7.424a3.71,3.71,0,0,1,0-5.248Zm1.312,3.936,7.424,7.424a1.9,1.9,0,0,0,2.624,0,1.857,1.857,0,0,0,0-2.624l-6.111-6.111,6.111-6.112a1.856,1.856,0,0,0-2.624-2.626L226.4,57.836a1.857,1.857,0,0,0,0,2.626Z" transform="translate(-224 -48.016)" fill="#200e32"/>
    </g>
  </g>
  <g id="Group_27" data-name="Group 27" transform="translate(12.991 0)">
    <g id="Group_26" data-name="Group 26" transform="translate(0 0)">
      <path id="Path_1385" data-name="Path 1385" d="M1.088,56.525,8.511,49.1A3.711,3.711,0,1,1,13.76,54.35l-4.8,4.8,4.8,4.8A3.711,3.711,0,1,1,8.511,69.2L1.088,61.774a3.71,3.71,0,0,1,0-5.248ZM2.4,60.462l7.424,7.424a1.9,1.9,0,0,0,2.624,0,1.857,1.857,0,0,0,0-2.624L6.336,59.15l6.112-6.112a1.856,1.856,0,0,0-2.624-2.626L2.4,57.836a1.857,1.857,0,0,0,0,2.626Z" transform="translate(0 -48.016)" fill="#200e32"/>
    </g>
  </g>
</svg>
