<svg xmlns="http://www.w3.org/2000/svg" width="22.636" height="34.587" viewBox="0 0 22.636 34.587">
  <g id="fire_1_" data-name="fire (1)" transform="translate(-88.456)">
    <path id="Path_1380" data-name="Path 1380" d="M110.085,18.867C108.05,14.153,102.358,6,105.06.5a.345.345,0,0,0-.422-.481c-2.348.83-8.614,3.784-6.67,11.205a12.019,12.019,0,0,0-3.4-2.8.344.344,0,0,0-.475.346c.34,4.487-2.851,6.89-4.7,10.679-1.655,3.4-.946,6.713.753,9.669a11.833,11.833,0,0,0,5.345,4.871q-.205-.194-.4-.408a6.625,6.625,0,0,1-1.613-5.167c.217-1.887,1.558-3.647,2.855-5.348,1.557-2.043,3.028-3.973,2.3-5.655a1.027,1.027,0,0,1,1.41-1.323,8.078,8.078,0,0,1,2.844,2.758,9.162,9.162,0,0,1,1.265,5.915l.061-.01a1.027,1.027,0,0,1,1.062.577,8.165,8.165,0,0,1-.257,7.692,5.811,5.811,0,0,1-1.44,1.567C110.228,32.536,112.661,24.835,110.085,18.867Z" transform="translate(0 0)" fill="#ffc107"/>
    <path id="Path_1381" data-name="Path 1381" d="M197.895,287.042a13.736,13.736,0,0,1-2.8,4.919c-1.128,1.481-2.3,3.012-2.448,4.338a4.569,4.569,0,0,0,1.106,3.565,4.374,4.374,0,0,0,3.311,1.467,3.739,3.739,0,0,0,3.345-1.757,5.742,5.742,0,0,0,.7-3.845,3.317,3.317,0,0,1-1.4.544,1.027,1.027,0,0,1-1.089-1.353C199.982,290.943,198.988,288.446,197.895,287.042Z" transform="translate(-97.122 -267.651)" fill="#f7991c"/>
  </g>
</svg>
