<svg id="verify" xmlns="http://www.w3.org/2000/svg" width="40" height="52.513" viewBox="0 0 40 52.513">
  <path id="Path_1741" data-name="Path 1741" d="M20,52.513c-.308-.258-20-5.371-20-26.256v-20H5.143C15.685,6.256,19.313.389,20,0c.726.411,4.26,6.256,14.857,6.256H40v20c0,20.886-19.692,26-20,26.256Zm0,0" fill="#516eff"/>
  <path id="Path_1743" data-name="Path 1743" d="M73.846,148.692a13.846,13.846,0,1,1,13.846-13.846A13.862,13.862,0,0,1,73.846,148.692Zm0,0" transform="translate(-53.846 -108.59)" fill="#ced6ff"/>
  <path id="Path_1745" data-name="Path 1745" d="M130.1,226.35l-5.7-5.7,2.175-2.176L130.1,222l6.6-6.6,2.175,2.175Zm0,0" transform="translate(-111.636 -193.303)" fill="#516eff"/>
</svg>
