<svg xmlns="http://www.w3.org/2000/svg" width="39.4" height="39.4" viewBox="0 0 39.4 39.4">
  <path id="film" d="M39.4,19.7A19.7,19.7,0,1,0,19.7,39.4H39.4V36.117H30.576A19.7,19.7,0,0,0,39.4,19.7ZM29.35,32.982A4.925,4.925,0,1,1,30.439,26.1,4.925,4.925,0,0,1,29.35,32.982Zm-.242-21.517a4.925,4.925,0,1,1-3.162,6.206,4.925,4.925,0,0,1,3.162-6.206ZM19.7,3.283a4.925,4.925,0,1,1-4.925,4.925A4.925,4.925,0,0,1,19.7,3.283ZM4.087,14.627a4.925,4.925,0,1,1,3.162,6.206,4.926,4.926,0,0,1-3.162-6.206ZM16.93,31.891a4.925,4.925,0,1,1-1.089-6.878,4.925,4.925,0,0,1,1.089,6.878ZM18.058,19.7A1.642,1.642,0,1,1,19.7,21.342,1.642,1.642,0,0,1,18.058,19.7Zm0,0" fill="#fff"/>
</svg>
