<svg id="instagram" xmlns="http://www.w3.org/2000/svg" width="39.394" height="39.402" viewBox="0 0 39.394 39.402">
  <path id="Path_1340" data-name="Path 1340" d="M39.743,11.584a14.4,14.4,0,0,0-.916-4.78,10.093,10.093,0,0,0-5.765-5.765,14.434,14.434,0,0,0-4.78-.916C26.172.023,25.5,0,20.153,0s-6.019.023-8.121.115a14.4,14.4,0,0,0-4.78.916A9.614,9.614,0,0,0,3.758,3.31,9.7,9.7,0,0,0,1.488,6.8a14.436,14.436,0,0,0-.916,4.78C.472,13.686.449,14.355.449,19.7s.023,6.019.115,8.121a14.4,14.4,0,0,0,.916,4.78A10.092,10.092,0,0,0,7.245,38.37a14.436,14.436,0,0,0,4.78.916c2.1.093,2.771.115,8.121.115s6.019-.023,8.121-.115a14.394,14.394,0,0,0,4.78-.916,10.078,10.078,0,0,0,5.765-5.765,14.446,14.446,0,0,0,.916-4.78c.092-2.1.115-2.771.115-8.121s-.008-6.019-.1-8.121ZM36.194,27.671a10.8,10.8,0,0,1-.677,3.656,6.536,6.536,0,0,1-3.741,3.741,10.838,10.838,0,0,1-3.656.677c-2.078.093-2.7.115-7.959.115s-5.888-.023-7.959-.115a10.794,10.794,0,0,1-3.656-.677A6.063,6.063,0,0,1,6.283,33.6a6.126,6.126,0,0,1-1.47-2.263,10.84,10.84,0,0,1-.677-3.656c-.093-2.078-.115-2.7-.115-7.959s.023-5.888.115-7.959a10.794,10.794,0,0,1,.677-3.656A5.989,5.989,0,0,1,6.291,5.842a6.117,6.117,0,0,1,2.263-1.47,10.845,10.845,0,0,1,3.656-.677c2.078-.092,2.7-.115,7.959-.115s5.888.023,7.959.115a10.8,10.8,0,0,1,3.656.677,6.059,6.059,0,0,1,2.263,1.47,6.125,6.125,0,0,1,1.47,2.263,10.844,10.844,0,0,1,.677,3.656c.092,2.078.115,2.7.115,7.959s-.023,5.873-.115,7.951Zm0,0" transform="translate(-0.449 0)" fill="#fff"/>
  <path id="Path_1341" data-name="Path 1341" d="M133.46,124.5a8.511,8.511,0,1,0,8.512,8.511A8.513,8.513,0,0,0,133.46,124.5Zm0,14.032a5.521,5.521,0,1,1,5.521-5.521A5.522,5.522,0,0,1,133.46,138.532Zm0,0" transform="translate(-113.754 -113.305)" fill="#fff"/>
  <path id="Path_1342" data-name="Path 1342" d="M367.971,91.362a2.76,2.76,0,1,1-2.761-2.76A2.761,2.761,0,0,1,367.971,91.362Zm0,0" transform="translate(-335.225 -81.938)" fill="#fff"/>
</svg>
