<svg xmlns="http://www.w3.org/2000/svg" width="30" height="30" viewBox="0 0 30 30">
  <g id="telephone-call_2_" data-name="telephone-call (2)" transform="translate(-1 -1)">
    <path id="Path_1391" data-name="Path 1391" d="M30.035,22.594c-.053-.044-6.049-4.31-7.668-4.049-.781.138-1.227.671-2.122,1.737-.144.172-.491.583-.759.876a12.459,12.459,0,0,1-1.651-.672,13.7,13.7,0,0,1-6.321-6.321,12.458,12.458,0,0,1-.672-1.651c.294-.269.706-.616.882-.764,1.061-.89,1.593-1.337,1.731-2.119.283-1.619-4.005-7.613-4.049-7.667A2.289,2.289,0,0,0,7.7,1C5.962,1,1,7.436,1,8.521c0,.063.091,6.467,7.988,14.5C17.012,30.909,23.416,31,23.479,31,24.563,31,31,26.038,31,24.3a2.291,2.291,0,0,0-.965-1.706Zm-6.667,6.4C22.5,28.92,17.12,28.211,10.4,21.61,3.767,14.857,3.076,9.468,3.007,8.633A27.054,27.054,0,0,1,7.713,3.072c.04.04.093.1.161.178a35.391,35.391,0,0,1,3.574,6.063,11.886,11.886,0,0,1-1.016.911A10.033,10.033,0,0,0,8.92,11.646a1,1,0,0,0-.171.751,11.418,11.418,0,0,0,.965,2.641,15.71,15.71,0,0,0,7.248,7.247,11.389,11.389,0,0,0,2.641.966.991.991,0,0,0,.751-.171,10.075,10.075,0,0,0,1.427-1.518c.314-.374.733-.873.892-1.014a35.146,35.146,0,0,1,6.076,3.578c.083.07.142.124.181.159a27.036,27.036,0,0,1-5.562,4.707Z" fill="#4d5dab"/>
    <path id="Path_1392" data-name="Path 1392" d="M23,15h2a8.009,8.009,0,0,0-8-8V9a6.006,6.006,0,0,1,6,6Z" fill="#4d5dab"/>
    <path id="Path_1393" data-name="Path 1393" d="M28,15h2A13.015,13.015,0,0,0,17,2V4A11.013,11.013,0,0,1,28,15Z" fill="#4d5dab"/>
  </g>
</svg>
