<svg xmlns="http://www.w3.org/2000/svg" width="45.253" height="39.401" viewBox="0 0 45.253 39.401">
  <path id="Path_1400" data-name="Path 1400" d="M1018.791,1042.461l10.427,3.893,4.037,12.979a1.227,1.227,0,0,0,1.949.587l5.813-4.738a1.732,1.732,0,0,1,2.113-.059l10.484,7.612a1.228,1.228,0,0,0,1.924-.744l7.68-36.94a1.228,1.228,0,0,0-1.645-1.4l-42.794,16.508a1.229,1.229,0,0,0,.012,2.3Zm13.813,1.821,20.379-12.552a.355.355,0,0,1,.429.562l-16.82,15.635a3.491,3.491,0,0,0-1.08,2.085l-.572,4.246a.527.527,0,0,1-1.029.075l-2.2-7.742a2.048,2.048,0,0,1,.9-2.308Zm0,0" transform="translate(-1017.991 -1023.569)" fill="#fff"/>
</svg>
