<svg xmlns="http://www.w3.org/2000/svg" width="39.362" height="39.4" viewBox="0 0 39.362 39.4">
  <g id="whatsapp_2_" data-name="whatsapp (2)" transform="translate(0)">
    <path id="Path_1507" data-name="Path 1507" d="M33.546,5.722a19.692,19.692,0,0,0-27.751,0A19.329,19.329,0,0,0,0,19.518v.01a19.429,19.429,0,0,0,2.4,9.221L.054,39.4l10.774-2.451a19.721,19.721,0,0,0,8.845,2.1h.008a19.628,19.628,0,0,0,13.885-5.717,19.316,19.316,0,0,0-.02-27.612ZM19.68,35.976h-.007a16.621,16.621,0,0,1-7.9-2l-.51-.277L4.1,35.326l1.556-7.072-.3-.517a16.437,16.437,0,0,1-2.28-8.212A16.6,16.6,0,0,1,31.375,7.9a16.347,16.347,0,0,1,4.911,11.632A16.549,16.549,0,0,1,19.68,35.976Zm0,0" fill="#fff"/>
    <path id="Path_1508" data-name="Path 1508" d="M142.506,141.863h-.863a1.656,1.656,0,0,0-1.2.561,5.024,5.024,0,0,0-1.576,3.742,8.714,8.714,0,0,0,1.838,4.64c.225.3,3.114,4.974,7.69,6.773,3.8,1.495,4.577,1.2,5.4,1.122a4.546,4.546,0,0,0,3.039-2.133,3.74,3.74,0,0,0,.263-2.133c-.113-.187-.413-.3-.863-.523s-2.657-1.328-3.069-1.478-.713-.224-1.013.225-1.184,1.486-1.447,1.786-.525.337-.975.113a12.447,12.447,0,0,1-3.605-2.236,13.794,13.794,0,0,1-2.53-3.155c-.262-.449-.028-.692.2-.916.2-.2.476-.476.7-.737a3.034,3.034,0,0,0,.439-.748.824.824,0,0,0-.038-.786c-.113-.225-.977-2.443-1.377-3.331h0C143.181,141.9,142.826,141.876,142.506,141.863Zm0,0" transform="translate(-128.18 -130.946)" fill="#fff"/>
  </g>
</svg>
